<?xml version="1.0" encoding="UTF-8"?>
<svg id="Layer_1" data-name="Layer 1" xmlns="http://www.w3.org/2000/svg" viewBox="0 0 154 32">
  <defs>
    <style>
      .cls-1 {
        fill: #080808;
      }
    </style>
  </defs>
  <polygon class="cls-1" points="34.53 5.86 31.41 8.97 45.37 8.97 45.37 21.15 33.35 21.15 33.35 11.1 31.39 8.99 29.88 10.5 29.88 19.62 34.53 24.26 44.2 24.26 48.84 19.62 48.84 10.5 44.2 5.86 34.53 5.86"/>
  <path class="cls-1" d="M58.64,5.86c-.73,0-1.06.2-1.71.8l-1.64,1.74v-2.54h-3.44v18.4h3.44v-13.18l-1.96-2.11h13.94v15.29h3.47v-13.76l-4.64-4.64h-7.46Z"/>
  <polygon class="cls-1" points="77.07 11.09 75.12 8.99 73.6 10.5 73.6 19.62 78.24 24.26 89.54 24.26 89.54 21.15 77.07 21.15 77.07 11.09"/>
  <polygon class="cls-1" points="89.54 8.97 89.54 5.9 78.2 5.9 75.13 8.97 89.54 8.97"/>
  <polygon class="cls-1" points="96.43 5.86 93.56 8.73 106.91 8.73 106.91 14.01 95.26 14.01 95.26 10.86 93.41 8.88 91.79 10.5 91.79 19.62 96.43 24.26 109.86 24.26 109.86 21.39 95.26 21.39 95.26 16.68 110.03 16.68 110.03 10.5 105.38 5.86 96.43 5.86"/>
  <path class="cls-1" d="M127.32,5.86h-7.74c-.72,0-1,.18-1.58.8l-1.53,1.77v-2.45h-3.44v26.01h3.44v-10.31l1.53,1.78c.65.65.86.79,1.57.79h7.74l4.64-4.64v-9.11l-4.64-4.64ZM128.53,21.19h-12.06v-10.13l-1.99-2.13h14.05v12.26Z"/>
  <path class="cls-1" d="M145.96,21.11v3.14h-4.69l-1.57-1.6c-1.06-1.08-2.12-2.15-3.18-3.22v-10.67h-2.78v-2.6l.33-.3h11.78v2.9h-7.83l1.98,2.13v10.22h5.97Z"/>
  <polygon class="cls-1" points="23.53 8.97 23.53 13.27 27 16.74 27 10.5 22.36 5.86 12.68 5.86 9.57 8.97 23.53 8.97"/>
  <polygon class="cls-1" points="19.92 19.64 21.42 21.15 11.51 21.15 11.51 11.1 9.55 8.99 8.04 10.5 8.04 19.62 12.68 24.26 22.36 24.26 23.45 23.17 24.53 24.26 29.39 24.26 22.35 17.21 19.92 19.64"/>
  <path class="cls-1" d="M134.46,5.46l5.46-5.02.49-.45v5.44c-.7-.38-1.41-.77-2.11-1.15-1.28.39-2.56.78-3.83,1.17"/>
</svg>